<svg width="210" height="62" viewBox="0 0 210 62" fill="none" xmlns="http://www.w3.org/2000/svg">
<path fill-rule="evenodd" clip-rule="evenodd" d="M26.9977 28.2686C25.5779 28.9745 23.9169 30.6791 23.1689 32.1975C22.8534 32.8384 22.5585 33.4877 22.5136 33.6403C22.4459 33.871 22.3061 33.7976 21.6835 33.2029C20.8449 32.4019 19.2693 31.5492 18.6284 31.5492C18.3792 31.5492 18.0494 31.7161 17.8228 31.9567C17.4699 32.3317 17.4398 32.4871 17.4452 33.9084C17.4507 35.3686 17.4833 35.5179 18.042 36.6445C18.5065 37.5815 18.9008 38.0844 19.8867 38.9972L21.1405 40.1582L20.7422 40.8607C19.9878 42.1912 18.5107 43.3454 17.7909 43.1668C17.5975 43.1188 17.0121 42.9706 16.49 42.8373C14.01 42.205 9.88599 42.0457 8.1998 42.5174C5.94478 43.148 5.5902 44.9041 7.5957 45.5091C8.83238 45.882 12.4571 45.8349 15.1451 45.4107C18.5323 44.8761 18.2852 44.8732 19.2589 45.4586C20.4568 46.1788 20.425 46.4614 19.0697 47.1398L18.0102 47.6702L16.305 47.2445C13.638 46.5789 12.2056 46.3734 10.2293 46.3731C8.09632 46.3729 6.93036 46.6511 6.25838 47.3209C5.41869 48.1578 5.82817 49.3437 7.12545 49.8322C7.38905 49.9316 8.93918 50 10.9228 50C14.1463 50 15.5083 49.8655 17.3884 49.3615C17.8804 49.2295 18.1096 49.2669 18.8717 49.6028C19.6162 49.9309 20.0196 50 21.1905 50C22.9259 50 22.9564 49.8324 21.3628 49.0538C20.7415 48.7502 20.1881 48.4568 20.1332 48.4016C20.0783 48.3464 20.288 48.1444 20.5994 47.9528C21.6721 47.2918 21.9614 45.9984 21.2301 45.1322C21.0089 44.8701 20.5796 44.5028 20.2761 44.3159L19.7245 43.9762L20.4693 43.3229C21.2981 42.5957 22.3487 41.0785 22.5006 40.3892C22.5832 40.0145 22.7191 39.9103 23.3219 39.7589C25.1887 39.2904 26.4689 38.2371 27.8084 36.0678C29.7191 32.9734 30.6036 28.9037 29.5503 28.0537C29.0141 27.6208 28.1552 27.6932 26.9977 28.2686ZM28.2127 30.2741C27.9445 32.6375 26.8516 35.2118 25.6027 36.4223C24.8732 37.1296 23.2128 38.1622 23.2162 37.9064C23.2174 37.8361 23.499 36.8074 23.8423 35.6207C24.5594 33.1418 25.2387 31.6522 26.0926 30.6852C26.6184 30.0901 27.7801 29.3419 28.1794 29.3416C28.256 29.3415 28.2709 29.7611 28.2127 30.2741ZM20.3647 34.2041C20.9139 34.7515 21.318 36.0399 21.3093 37.2157L21.3028 38.0937L20.7128 37.4442C19.909 36.559 19.2777 35.3574 19.1576 34.4834C19.06 33.7741 19.0678 33.757 19.4869 33.757C19.7473 33.757 20.0926 33.9329 20.3647 34.2041ZM12.9299 44.1044C13.9729 44.1998 14.0592 44.2304 13.6419 44.3579C12.9013 44.584 8.3952 44.5968 8.17068 44.3733C8.02702 44.2301 8.10739 44.167 8.51862 44.1003C8.81276 44.0527 9.23142 43.9833 9.44898 43.9463C9.86685 43.875 10.9708 43.9251 12.9299 44.1044ZM13.9212 48.4017C14.1465 48.6263 12.2886 48.7826 10.2104 48.714C8.32163 48.6517 7.55139 48.446 8.42052 48.2363C9.07889 48.0773 13.7364 48.2175 13.9212 48.4017Z" fill="#3AB008"/>
<path fill-rule="evenodd" clip-rule="evenodd" d="M10.3192 12.3253C8.70722 12.7175 6.20617 13.9398 4.78136 15.0319C0.299334 18.467 -1.11883 23.9726 0.897264 30.1099C1.7743 32.7795 4.16302 37.3806 5.63609 39.2382C6.82309 40.7347 8.16499 41.1938 8.75026 40.3034C9.07509 39.8095 8.86086 39.3361 7.7843 38.169C6.01883 36.255 3.86571 32.386 2.82381 29.255C0.643473 22.7036 3.70053 16.6898 10.2469 14.6526C11.9709 14.1161 14.7156 14.1432 16.4548 14.714C18.7697 15.4736 20.6269 16.8561 22.2291 19.0122L22.9322 19.9584L21.1351 20.0453C19.0407 20.1467 17.7092 20.5304 16.3017 21.4379C15.2936 22.0878 14.0753 23.3535 13.4748 24.3749C12.9943 25.1921 12.4552 26.7314 12.4552 27.2863C12.4552 28.1316 13.4125 28.6553 14.1948 28.238C14.3649 28.1474 14.6004 27.6975 14.7522 27.1736C15.6387 24.1123 17.7895 22.3001 20.7288 22.1375C21.6313 22.0876 22.2935 22.1417 22.8981 22.315C24.9942 22.9157 25.3887 22.9618 25.7388 22.6459C26.2078 22.2229 26.1432 21.7673 25.4083 20.3097C23.3001 16.1285 20.025 13.2515 16.2897 12.2993C14.6854 11.8904 12.0603 11.9019 10.3192 12.3253ZM20.0079 23.195C18.4307 23.5919 17.1371 24.6832 16.3982 26.2397C15.8147 27.4691 15.7949 28.1381 16.3317 28.4886C16.696 28.7266 16.758 28.7269 17.1167 28.4927C17.3325 28.3517 17.5784 27.9748 17.6684 27.6467C18.0274 26.3394 18.9676 25.3927 20.3054 24.9915C21.3038 24.692 21.7842 24.7095 22.9075 25.0868C23.9743 25.4449 24.4088 25.3438 24.571 24.6994C24.7164 24.1221 24.4004 23.7211 23.5734 23.4338C22.6539 23.1143 20.8176 22.9914 20.0079 23.195ZM20.2809 26.0109C18.6557 26.7465 17.8728 29.0261 19.2453 29.0261C19.6057 29.0261 19.7355 28.9242 19.8983 28.5135C20.3589 27.3507 21.1172 26.9673 22.2739 27.3127C22.8936 27.4976 22.9588 27.4876 23.2205 27.1654C24.0933 26.0911 21.9568 25.252 20.2809 26.0109Z" fill="#1570EF"/>
<path d="M53.28 39.104L55.824 39.92L55.296 41H47.784V40.136L50.04 38.36V34.28L43.824 24.296L41.952 23.216L42.432 22.136H49.896V23L47.76 24.656L52.464 32.24L57.312 24.776L53.568 23.216L54.096 22.136H61.488V23L59.448 24.296L53.28 33.8V39.104ZM75.5166 41H70.7646V38.912L68.0526 41.048C67.7326 41.176 67.3326 41.24 66.8526 41.24C65.4446 41.24 64.4286 40.896 63.8046 40.208C63.1806 39.504 62.8686 38.656 62.8686 37.664C62.8686 37.088 63.0686 36.52 63.4686 35.96C63.8686 35.384 64.4526 34.84 65.2206 34.328H70.7646V33.032C70.7646 31.16 69.7646 30.224 67.7646 30.224C66.7566 30.224 65.4926 30.792 63.9726 31.928L63.2526 30.92L66.6846 28.208C67.4206 28.048 68.2206 27.968 69.0846 27.968C70.6046 27.968 71.7806 28.336 72.6126 29.072C73.4606 29.808 73.8846 30.872 73.8846 32.264V39.08L76.0446 39.92L75.5166 41ZM67.7166 38.96C68.6606 38.96 69.6766 38.536 70.7646 37.688V35.432H66.5886C66.3966 35.672 66.2606 35.912 66.1806 36.152C66.1006 36.392 66.0606 36.656 66.0606 36.944C66.0606 37.504 66.2126 37.984 66.5166 38.384C66.8206 38.768 67.2206 38.96 67.7166 38.96ZM88.5698 30.056C89.0018 30.696 89.2178 31.376 89.2178 32.096C89.2178 33.136 88.7938 34.128 87.9458 35.072C87.0978 36 86.0658 36.664 84.8498 37.064C84.4338 37.512 84.2258 37.976 84.2258 38.456C84.2258 38.712 84.4178 38.952 84.8018 39.176C85.1858 39.384 85.8018 39.664 86.6498 40.016C87.7698 40.464 88.6418 40.88 89.2657 41.264C89.8898 41.648 90.2018 42.112 90.2018 42.656C90.2018 43.152 89.8898 43.776 89.2657 44.528C88.6418 45.28 87.8658 45.936 86.9378 46.496C86.0258 47.056 85.1458 47.336 84.2978 47.336C83.3698 47.336 82.2818 47.184 81.0338 46.88C79.8018 46.576 78.7698 46.272 77.9378 45.968V42.152H78.9698C79.8498 43.256 80.7378 44.088 81.6338 44.648C82.5298 45.224 83.5458 45.512 84.6818 45.512C85.1138 45.512 85.4978 45.432 85.8338 45.272C86.1858 45.112 86.4578 44.904 86.6498 44.648C86.8418 44.408 86.9378 44.176 86.9378 43.952C86.9378 43.536 86.6898 43.176 86.1938 42.872C85.7138 42.568 84.9698 42.192 83.9618 41.744C82.9858 41.328 82.2498 40.968 81.7538 40.664C81.2578 40.344 81.0098 39.984 81.0098 39.584C81.0098 39.2 81.2658 38.808 81.7778 38.408C82.3058 38.008 82.9298 37.656 83.6497 37.352C83.2978 37.384 83.0338 37.4 82.8578 37.4C81.9938 37.4 81.1938 37.216 80.4578 36.848C79.7378 36.464 79.1618 35.96 78.7298 35.336C78.3138 34.696 78.1058 34.008 78.1058 33.272C78.1058 32.392 78.4178 31.544 79.0418 30.728C79.6658 29.896 80.4738 29.232 81.4658 28.736C82.4578 28.224 83.4658 27.968 84.4898 27.968C85.6578 27.968 86.6738 28.288 87.5378 28.928H91.3538L91.3058 30.056H88.5698ZM84.2018 35.264C84.8738 35.264 85.3858 35.096 85.7378 34.76C86.1058 34.424 86.2898 33.92 86.2898 33.248C86.2898 32.32 85.9938 31.576 85.4018 31.016C84.8098 30.456 84.0258 30.176 83.0498 30.176C81.6738 30.176 80.9858 30.824 80.9858 32.12C80.9858 33.064 81.2818 33.824 81.8738 34.4C82.4658 34.976 83.2418 35.264 84.2018 35.264ZM100.499 27.968C101.587 27.968 102.555 28.248 103.403 28.808C104.267 29.352 104.939 30.096 105.419 31.04C105.899 31.984 106.139 33.032 106.139 34.184C106.139 35.432 105.755 36.6 104.987 37.688C104.235 38.76 103.283 39.624 102.131 40.28C100.979 40.92 99.8674 41.24 98.7954 41.24C97.7234 41.24 96.7554 40.968 95.8914 40.424C95.0434 39.864 94.3714 39.112 93.8754 38.168C93.3954 37.224 93.1554 36.176 93.1554 35.024C93.1554 33.776 93.5314 32.616 94.2834 31.544C95.0514 30.456 96.0114 29.592 97.1634 28.952C98.3154 28.296 99.4274 27.968 100.499 27.968ZM99.1074 30.152C97.3794 30.152 96.5154 31.392 96.5154 33.872C96.5154 35.36 96.8274 36.6 97.4514 37.592C98.0914 38.584 99.0034 39.08 100.187 39.08C101.035 39.08 101.675 38.76 102.107 38.12C102.539 37.48 102.755 36.544 102.755 35.312C102.755 33.84 102.435 32.616 101.795 31.64C101.171 30.648 100.275 30.152 99.1074 30.152ZM124.038 41.024H119.31V33.008C119.31 32.16 119.174 31.568 118.902 31.232C118.63 30.88 118.158 30.704 117.486 30.704C116.99 30.704 116.494 30.792 115.998 30.968C115.502 31.144 114.926 31.48 114.27 31.976V39.152L116.43 39.944L115.878 41.024H109.014V40.16L111.15 38.456V31.928L109.014 30.656V29.792L113.286 27.752L114.126 30.8L117.438 28.16C117.806 28.032 118.254 27.968 118.782 27.968C119.902 27.968 120.79 28.304 121.446 28.976C122.102 29.632 122.43 30.528 122.43 31.664V39.128L124.59 39.944L124.038 41.024ZM139.149 41H134.397V38.912L131.685 41.048C131.365 41.176 130.965 41.24 130.485 41.24C129.077 41.24 128.061 40.896 127.437 40.208C126.813 39.504 126.501 38.656 126.501 37.664C126.501 37.088 126.701 36.52 127.101 35.96C127.501 35.384 128.085 34.84 128.853 34.328H134.397V33.032C134.397 31.16 133.397 30.224 131.397 30.224C130.389 30.224 129.125 30.792 127.605 31.928L126.885 30.92L130.317 28.208C131.053 28.048 131.853 27.968 132.717 27.968C134.237 27.968 135.413 28.336 136.245 29.072C137.093 29.808 137.517 30.872 137.517 32.264V39.08L139.677 39.92L139.149 41ZM131.349 38.96C132.293 38.96 133.309 38.536 134.397 37.688V35.432H130.221C130.029 35.672 129.893 35.912 129.813 36.152C129.733 36.392 129.693 36.656 129.693 36.944C129.693 37.504 129.845 37.984 130.149 38.384C130.453 38.768 130.853 38.96 131.349 38.96ZM157.706 27.968C158.586 27.968 159.386 28.248 160.106 28.808C160.826 29.352 161.386 30.104 161.786 31.064C162.186 32.008 162.386 33.048 162.386 34.184C162.386 35.432 162.002 36.6 161.234 37.688C160.482 38.76 159.53 39.624 158.378 40.28C157.226 40.92 156.114 41.24 155.042 41.24C154.386 41.24 153.77 41.104 153.194 40.832C152.634 40.544 152.138 40.144 151.706 39.632L150.65 41H149.618V24.008L147.482 22.52V21.656L151.706 20.048H152.738V30.632L155.834 28.16C156.346 28.032 156.962 27.968 157.682 27.968H157.706ZM156.434 39.08C157.298 39.08 157.946 38.768 158.378 38.144C158.81 37.504 159.026 36.568 159.026 35.336C159.026 33.896 158.794 32.688 158.33 31.712C157.882 30.72 157.242 30.224 156.41 30.224C155.818 30.224 155.242 30.336 154.682 30.56C154.138 30.768 153.498 31.184 152.762 31.808V36.08C152.762 36.928 153.074 37.64 153.698 38.216C154.338 38.792 155.25 39.08 156.434 39.08ZM178.009 41H173.257V38.912L170.545 41.048C170.225 41.176 169.825 41.24 169.345 41.24C167.937 41.24 166.921 40.896 166.297 40.208C165.673 39.504 165.361 38.656 165.361 37.664C165.361 37.088 165.561 36.52 165.961 35.96C166.361 35.384 166.945 34.84 167.713 34.328H173.257V33.032C173.257 31.16 172.257 30.224 170.257 30.224C169.249 30.224 167.985 30.792 166.465 31.928L165.745 30.92L169.177 28.208C169.913 28.048 170.713 27.968 171.577 27.968C173.097 27.968 174.273 28.336 175.105 29.072C175.953 29.808 176.377 30.872 176.377 32.264V39.08L178.537 39.92L178.009 41ZM170.209 38.96C171.153 38.96 172.169 38.536 173.257 37.688V35.432H169.081C168.889 35.672 168.753 35.912 168.673 36.152C168.593 36.392 168.553 36.656 168.553 36.944C168.553 37.504 168.705 37.984 169.009 38.384C169.313 38.768 169.713 38.96 170.209 38.96ZM190.102 37.88L191.134 35.888L191.974 36.152V41.432L190.534 41H180.742V39.968L188.686 31.328H182.83L181.87 33.104L181.03 32.816V27.776L182.47 28.208H192.262V29.24L184.366 37.88H190.102ZM207.962 41H203.21V38.912L200.498 41.048C200.178 41.176 199.778 41.24 199.298 41.24C197.89 41.24 196.874 40.896 196.25 40.208C195.626 39.504 195.314 38.656 195.314 37.664C195.314 37.088 195.514 36.52 195.914 35.96C196.314 35.384 196.898 34.84 197.666 34.328H203.21V33.032C203.21 31.16 202.21 30.224 200.21 30.224C199.202 30.224 197.938 30.792 196.418 31.928L195.698 30.92L199.13 28.208C199.866 28.048 200.666 27.968 201.53 27.968C203.05 27.968 204.226 28.336 205.058 29.072C205.906 29.808 206.33 30.872 206.33 32.264V39.08L208.49 39.92L207.962 41ZM200.162 38.96C201.106 38.96 202.122 38.536 203.21 37.688V35.432H199.034C198.842 35.672 198.706 35.912 198.626 36.152C198.546 36.392 198.506 36.656 198.506 36.944C198.506 37.504 198.658 37.984 198.962 38.384C199.266 38.768 199.666 38.96 200.162 38.96Z" fill="#1570EF"/>
</svg>
