<svg width="30" height="38" viewBox="0 0 30 38" fill="none" xmlns="http://www.w3.org/2000/svg">
<path fill-rule="evenodd" clip-rule="evenodd" d="M26.9977 16.2686C25.5779 16.9745 23.9169 18.6791 23.1689 20.1975C22.8534 20.8384 22.5585 21.4877 22.5136 21.6403C22.4459 21.871 22.3061 21.7976 21.6835 21.2029C20.8449 20.4019 19.2693 19.5492 18.6284 19.5492C18.3792 19.5492 18.0494 19.7161 17.8228 19.9567C17.4699 20.3317 17.4398 20.4871 17.4452 21.9084C17.4507 23.3686 17.4833 23.5179 18.042 24.6445C18.5065 25.5815 18.9008 26.0844 19.8867 26.9972L21.1405 28.1582L20.7422 28.8607C19.9878 30.1912 18.5107 31.3454 17.7909 31.1668C17.5975 31.1188 17.0121 30.9706 16.49 30.8373C14.01 30.205 9.88599 30.0457 8.1998 30.5174C5.94478 31.148 5.5902 32.9041 7.5957 33.5091C8.83238 33.882 12.4571 33.8349 15.1451 33.4107C18.5323 32.8761 18.2852 32.8732 19.2589 33.4586C20.4568 34.1788 20.425 34.4614 19.0697 35.1398L18.0102 35.6702L16.305 35.2445C13.638 34.5789 12.2056 34.3734 10.2293 34.3731C8.09632 34.3729 6.93036 34.6511 6.25838 35.3209C5.41869 36.1578 5.82817 37.3437 7.12545 37.8322C7.38905 37.9316 8.93918 38 10.9228 38C14.1463 38 15.5083 37.8655 17.3884 37.3615C17.8804 37.2295 18.1096 37.2669 18.8717 37.6028C19.6162 37.9309 20.0196 38 21.1905 38C22.9259 38 22.9564 37.8324 21.3628 37.0538C20.7415 36.7502 20.1881 36.4568 20.1332 36.4016C20.0783 36.3464 20.288 36.1444 20.5994 35.9528C21.6721 35.2918 21.9614 33.9984 21.2301 33.1322C21.0089 32.8701 20.5796 32.5028 20.2761 32.3159L19.7245 31.9762L20.4693 31.3229C21.2981 30.5957 22.3487 29.0785 22.5006 28.3892C22.5832 28.0145 22.7191 27.9103 23.3219 27.7589C25.1887 27.2904 26.4689 26.2371 27.8084 24.0678C29.7191 20.9734 30.6036 16.9037 29.5503 16.0537C29.0141 15.6208 28.1552 15.6932 26.9977 16.2686ZM28.2127 18.2741C27.9445 20.6375 26.8516 23.2118 25.6027 24.4223C24.8732 25.1296 23.2128 26.1622 23.2162 25.9064C23.2174 25.8361 23.499 24.8074 23.8423 23.6207C24.5594 21.1418 25.2387 19.6522 26.0926 18.6852C26.6184 18.0901 27.7801 17.3419 28.1794 17.3416C28.256 17.3415 28.2709 17.7611 28.2127 18.2741ZM20.3647 22.2041C20.9139 22.7515 21.318 24.0399 21.3093 25.2157L21.3028 26.0937L20.7128 25.4442C19.909 24.559 19.2777 23.3574 19.1576 22.4834C19.06 21.7741 19.0678 21.757 19.4869 21.757C19.7473 21.757 20.0926 21.9329 20.3647 22.2041ZM12.9299 32.1044C13.9729 32.1998 14.0592 32.2304 13.6419 32.3579C12.9013 32.584 8.3952 32.5968 8.17068 32.3733C8.02702 32.2301 8.10739 32.167 8.51862 32.1003C8.81276 32.0527 9.23142 31.9833 9.44898 31.9463C9.86685 31.875 10.9708 31.9251 12.9299 32.1044ZM13.9212 36.4017C14.1465 36.6263 12.2886 36.7826 10.2104 36.714C8.32163 36.6517 7.55139 36.446 8.42052 36.2363C9.07889 36.0773 13.7364 36.2175 13.9212 36.4017Z" fill="#3AB008"/>
<path fill-rule="evenodd" clip-rule="evenodd" d="M10.3192 0.325294C8.70722 0.717491 6.20617 1.93981 4.78136 3.03188C0.299334 6.46703 -1.11883 11.9726 0.897264 18.1099C1.7743 20.7795 4.16302 25.3806 5.63609 27.2382C6.82309 28.7347 8.16499 29.1938 8.75026 28.3034C9.07509 27.8095 8.86086 27.3361 7.7843 26.169C6.01883 24.255 3.86571 20.386 2.82381 17.255C0.643473 10.7036 3.70053 4.68976 10.2469 2.65261C11.9709 2.11612 14.7156 2.14324 16.4548 2.71396C18.7697 3.47359 20.6269 4.85614 22.2291 7.01219L22.9322 7.95839L21.1351 8.04528C19.0407 8.14668 17.7092 8.53036 16.3017 9.43792C15.2936 10.0878 14.0753 11.3535 13.4748 12.3749C12.9943 13.1921 12.4552 14.7314 12.4552 15.2863C12.4552 16.1316 13.4125 16.6553 14.1948 16.238C14.3649 16.1474 14.6004 15.6975 14.7522 15.1736C15.6387 12.1123 17.7895 10.3001 20.7288 10.1375C21.6313 10.0876 22.2935 10.1417 22.8981 10.315C24.9942 10.9157 25.3887 10.9618 25.7388 10.6459C26.2078 10.2229 26.1432 9.76735 25.4083 8.30974C23.3001 4.12851 20.025 1.25146 16.2897 0.299274C14.6854 -0.109639 12.0603 -0.0981271 10.3192 0.325294ZM20.0079 11.195C18.4307 11.5919 17.1371 12.6832 16.3982 14.2397C15.8147 15.4691 15.7949 16.1381 16.3317 16.4886C16.696 16.7266 16.758 16.7269 17.1167 16.4927C17.3325 16.3517 17.5784 15.9748 17.6684 15.6467C18.0274 14.3394 18.9676 13.3927 20.3054 12.9915C21.3038 12.692 21.7842 12.7095 22.9075 13.0868C23.9743 13.4449 24.4088 13.3438 24.571 12.6994C24.7164 12.1221 24.4004 11.7211 23.5734 11.4338C22.6539 11.1143 20.8176 10.9914 20.0079 11.195ZM20.2809 14.0109C18.6557 14.7465 17.8728 17.0261 19.2453 17.0261C19.6057 17.0261 19.7355 16.9242 19.8983 16.5135C20.3589 15.3507 21.1172 14.9673 22.2739 15.3127C22.8936 15.4976 22.9588 15.4876 23.2205 15.1654C24.0933 14.0911 21.9568 13.252 20.2809 14.0109Z" fill="#1570EF"/>
</svg>
